<svg width="904" height="904" viewBox="0 0 904 904" fill="none" xmlns="http://www.w3.org/2000/svg">
<g clip-path="url(#clip0)">
<path d="M1088.82 617.578C1080.68 626.487 1070.59 633.12 1059.64 638.27H1059.62C1058.59 638.76 1057.56 639.237 1056.52 639.687H1056.51L1056.49 639.7L1056.48 639.687H1056.47C1056.47 639.688 1056.47 639.69 1056.47 639.692C1056.47 639.693 1056.47 639.695 1056.46 639.696C1056.46 639.697 1056.46 639.698 1056.46 639.699C1056.46 639.7 1056.46 639.7 1056.45 639.7H1056.44L1056.43 639.687C1056.42 639.7 1056.42 639.7 1056.4 639.687L1056.39 639.7L1056.38 639.687H1056.36C1056.35 639.7 1056.35 639.7 1056.34 639.687H1056.32C1048.99 642.864 1041.47 645.562 1033.79 647.762C988.64 660.6 941.188 663.084 894.951 655.031C894.066 654.872 893.194 654.713 892.309 654.554V547.173C893.181 546.802 894.066 546.432 894.951 546.074C900.723 543.678 906.566 541.476 912.479 539.468C920.985 536.555 929.611 534.058 938.355 531.975C966.883 525.054 996.319 522.669 1025.59 524.905C1030.91 525.302 1036.22 525.876 1041.52 526.626C1052.6 528.175 1064.22 530.876 1074.45 535.563H1074.46C1075.95 536.264 1077.42 536.992 1078.87 537.773C1087.96 542.712 1095.62 549.503 1100.29 558.81C1101.97 562.153 1103.18 565.713 1103.89 569.388V569.415C1104.15 570.685 1104.34 571.97 1104.48 573.241C1106.15 588.915 1099.66 605.689 1088.82 617.578Z" fill="#F2F2F2"/>
<path d="M1104.48 573.24C1104.35 573.273 1104.22 573.29 1104.09 573.293C1081.46 574.286 1058.86 575.76 1036.3 577.715H1036.26C1036.17 577.728 1036.09 577.728 1035.99 577.742C1012.83 579.754 989.706 582.274 966.635 585.301C965.658 585.433 964.693 585.566 963.729 585.685C947.773 587.817 931.848 590.182 915.953 592.781C908.939 593.933 901.938 595.133 894.951 596.382C894.066 596.541 893.194 596.687 892.309 596.859V592.847C893.194 592.675 894.079 592.53 894.951 592.371C918.225 588.24 941.578 584.635 965.01 581.554C970.901 580.76 976.801 580.01 982.71 579.304C999.776 577.239 1016.87 575.456 1033.99 573.955C1035.24 573.849 1036.48 573.743 1037.74 573.637C1059.65 571.771 1081.6 570.354 1103.57 569.388C1103.68 569.383 1103.78 569.392 1103.89 569.414C1106 569.6 1106.45 572.777 1104.48 573.24Z" fill="white"/>
<path d="M938.355 531.974C938.234 532.347 938.018 532.68 937.728 532.943C937.439 533.205 937.085 533.387 936.704 533.47C930.244 535.167 924.003 537.61 918.106 540.752C909.495 545.31 901.676 551.234 894.951 558.293C894.594 558.651 894.251 559.008 893.921 559.379C893.366 559.961 892.837 560.557 892.309 561.166V555.394C893.155 554.494 894.04 553.607 894.951 552.759C900.261 547.664 906.143 543.203 912.479 539.468C920.985 536.555 929.611 534.057 938.355 531.974Z" fill="white"/>
<path d="M1130.83 422.078C1127.77 433.755 1121.89 444.333 1114.59 453.984L1114.57 453.998C1113.9 454.898 1113.2 455.811 1112.47 456.685V456.698C1107.4 462.96 1101.93 468.882 1096.08 474.425C1075.07 494.494 1051.34 511.488 1025.59 524.905C985.074 546.114 939.795 558.651 894.951 559.366C894.608 559.38 894.264 559.379 893.921 559.379C893.379 559.393 892.837 559.393 892.309 559.393V499.222C893.168 497.58 894.052 495.938 894.951 494.31C906.605 473.293 920.816 453.806 937.259 436.297C937.655 435.86 938.064 435.423 938.474 435C944.655 428.46 951.136 422.233 957.917 416.319C984.002 393.332 1014.15 375.438 1046.8 363.562C1057.33 359.776 1068.87 356.744 1080.1 356.149C1081.75 356.056 1083.39 356.016 1085.04 356.029C1095.38 356.175 1105.3 358.624 1113.77 364.688C1116.8 366.87 1119.52 369.458 1121.85 372.379C1122.67 373.399 1123.42 374.445 1124.15 375.517V375.53C1132.89 388.637 1134.93 406.496 1130.83 422.078Z" fill="#F2F2F2"/>
<path d="M1124.15 375.516V375.53C1124.05 375.615 1123.95 375.691 1123.83 375.755C1104.28 387.153 1084.98 398.967 1065.93 411.195C1065.9 411.209 1065.89 411.222 1065.86 411.235C1065.78 411.288 1065.7 411.337 1065.62 411.381C1046.03 423.958 1026.72 436.958 1007.69 450.383C1006.9 450.939 1006.09 451.508 1005.28 452.077C992.141 461.384 979.135 470.89 966.265 480.594C941.961 498.943 918.189 517.972 894.951 537.68C894.066 538.422 893.194 539.176 892.309 539.931V534.781C893.181 534.026 894.066 533.272 894.951 532.53C903.854 524.997 912.836 517.57 921.897 510.249C924.605 508.065 927.325 505.88 930.046 503.722C954.219 484.433 978.933 465.863 1004.19 448.013H1004.2C1009.17 444.504 1014.14 441.027 1019.13 437.581C1033.29 427.81 1047.6 418.274 1062.08 408.971C1063.12 408.296 1064.18 407.621 1065.24 406.946C1083.77 395.084 1102.54 383.61 1121.56 372.524C1121.65 372.468 1121.75 372.419 1121.85 372.379C1123.83 371.584 1125.69 374.206 1124.15 375.516Z" fill="white"/>
<path d="M944.893 397.626V397.639C944.801 398.778 944.695 399.903 944.576 401.028V401.055C943.658 409.065 942.224 417.007 940.283 424.832C939.359 428.671 938.355 432.484 937.259 436.297C937.127 436.787 936.981 437.276 936.836 437.753V437.766C933.61 448.855 929.756 459.751 925.292 470.4C917.078 490.007 906.913 508.733 894.951 526.295C894.092 527.579 893.208 528.863 892.309 530.134V322.813C893.194 322.76 894.066 322.76 894.951 322.786C895.373 322.786 895.796 322.799 896.219 322.826C899.946 323.022 903.627 323.74 907.156 324.957C908.398 325.368 909.599 325.831 910.789 326.348C925.199 332.676 936.519 346.63 941.433 361.973C945.118 373.465 945.858 385.552 944.893 397.626Z" fill="#F2F2F2"/>
<path d="M910.789 326.347C910.758 326.477 910.709 326.602 910.643 326.718C905.294 337.137 900.063 347.609 894.951 358.134C894.066 359.948 893.181 361.775 892.309 363.588V354.586C893.181 352.785 894.062 350.985 894.951 349.184C898.901 341.161 902.916 333.174 906.998 325.222C907.042 325.129 907.095 325.04 907.156 324.957C908.371 323.209 911.383 324.401 910.789 326.347Z" fill="white"/>
<path d="M945.316 399.757C945.078 400.181 944.84 400.604 944.576 401.028C940.697 407.803 936.081 414.125 930.813 419.88C920.693 430.884 908.506 439.779 894.951 446.054C894.079 446.477 893.194 446.875 892.309 447.245V442.943C893.194 442.545 894.079 442.135 894.951 441.711C914.573 432.331 930.872 417.172 941.67 398.261C941.826 397.991 942.038 397.758 942.292 397.577C942.545 397.396 942.835 397.272 943.14 397.213C943.446 397.154 943.76 397.162 944.063 397.235C944.365 397.309 944.649 397.446 944.893 397.639C945.06 397.75 945.203 397.893 945.315 398.06C945.426 398.226 945.504 398.414 945.543 398.61C945.582 398.807 945.582 399.01 945.543 399.206C945.504 399.403 945.427 399.59 945.316 399.757V399.757Z" fill="white"/>
<path d="M894.951 160.689V261.304H892.309V260.232H8.64176V261.304H6V160.689C6.01134 149.105 10.6074 137.999 18.7794 129.809C26.9515 121.618 38.0319 117.011 49.589 117H851.362C862.919 117.011 873.999 121.618 882.171 129.809C890.343 137.999 894.939 149.105 894.951 160.689V160.689Z" fill="#3943B7"/>
<path d="M851.362 117H49.589C38.0319 117.011 26.9515 121.618 18.7794 129.809C10.6074 137.999 6.01134 149.105 6 160.688V735.258C6.01134 746.842 10.6074 757.948 18.7794 766.138C26.9515 774.329 38.0319 778.936 49.589 778.947H851.362C862.919 778.936 873.999 774.329 882.171 766.138C890.343 757.948 894.939 746.842 894.951 735.258V160.688C894.939 149.105 890.343 137.999 882.171 129.809C873.999 121.618 862.919 117.011 851.362 117V117ZM892.309 735.258C892.295 746.139 887.977 756.57 880.3 764.263C872.624 771.957 862.217 776.285 851.362 776.299H49.589C38.7333 776.285 28.3263 771.957 20.6502 764.263C12.9741 756.57 8.65561 746.139 8.64176 735.258V160.688C8.65561 149.808 12.9741 139.377 20.6502 131.684C28.3263 123.99 38.7333 119.662 49.589 119.648H851.362C862.217 119.662 872.624 123.99 880.3 131.684C887.977 139.377 892.295 149.808 892.309 160.688V735.258Z" fill="#3F3D56"/>
<path d="M185.639 215.63C200.229 215.63 212.057 203.775 212.057 189.152C212.057 174.529 200.229 162.674 185.639 162.674C171.049 162.674 159.222 174.529 159.222 189.152C159.222 203.775 171.049 215.63 185.639 215.63Z" fill="white"/>
<path d="M715.312 215.63C729.902 215.63 741.729 203.775 741.729 189.152C741.729 174.529 729.902 162.674 715.312 162.674C700.721 162.674 688.894 174.529 688.894 189.152C688.894 203.775 700.721 215.63 715.312 215.63Z" fill="white"/>
<path d="M261.966 484.383H104.813C98.1551 484.376 91.7722 481.721 87.0644 477.003C82.3567 472.284 79.7086 465.887 79.701 459.214V384.768C79.7086 378.095 82.3567 371.698 87.0644 366.979C91.7722 362.261 98.1551 359.606 104.813 359.599H261.966C268.624 359.606 275.007 362.261 279.714 366.979C284.422 371.698 287.07 378.095 287.078 384.768V459.214C287.07 465.887 284.422 472.284 279.714 477.003C275.007 481.721 268.624 484.376 261.966 484.383V484.383Z" fill="#3943B7"/>
<path d="M529.31 484.383H372.157C365.499 484.376 359.116 481.721 354.408 477.003C349.701 472.284 347.052 465.887 347.045 459.214V384.768C347.052 378.095 349.701 371.698 354.408 366.979C359.116 362.261 365.499 359.606 372.157 359.599H529.31C535.967 359.606 542.35 362.261 547.058 366.979C551.766 371.698 554.414 378.095 554.422 384.768V459.214C554.414 465.887 551.766 472.284 547.058 477.003C542.35 481.721 535.967 484.376 529.31 484.383V484.383Z" fill="#3943B7"/>
<path d="M529.31 676.734H372.157C365.297 676.726 358.721 673.992 353.87 669.13C349.02 664.269 346.292 657.677 346.284 650.802V576.355C346.292 569.48 349.02 562.889 353.87 558.027C358.721 553.166 365.297 550.431 372.157 550.423H529.31C536.169 550.431 542.746 553.166 547.596 558.027C552.446 562.889 555.175 569.48 555.182 576.355V650.802C555.175 657.677 552.446 664.268 547.596 669.13C542.746 673.991 536.169 676.726 529.31 676.734V676.734Z" fill="#F2F2F2"/>
<path d="M261.451 676.734H104.298C97.438 676.726 90.8617 673.991 86.0113 669.13C81.1609 664.268 78.4325 657.677 78.4248 650.802V576.355C78.4325 569.48 81.1609 562.889 86.0113 558.027C90.8617 553.166 97.438 550.431 104.298 550.423H261.451C268.31 550.431 274.886 553.166 279.737 558.027C284.587 562.889 287.316 569.48 287.323 576.355V650.802C287.316 657.677 284.587 664.268 279.737 669.13C274.886 673.991 268.31 676.726 261.451 676.734V676.734Z" fill="#F2F2F2"/>
<path d="M796.653 676.734H639.5C632.641 676.726 626.064 673.991 621.214 669.13C616.363 664.268 613.635 657.677 613.627 650.802V576.355C613.635 569.48 616.363 562.889 621.214 558.027C626.064 553.166 632.641 550.431 639.5 550.423H796.653C803.513 550.431 810.089 553.166 814.94 558.027C819.79 562.889 822.518 569.48 822.526 576.355V650.802C822.518 657.677 819.79 664.268 814.94 669.13C810.089 673.991 803.513 676.726 796.653 676.734V676.734Z" fill="#F2F2F2"/>
<path d="M796.653 484.533H639.5C632.641 484.525 626.064 481.79 621.214 476.929C616.363 472.067 613.635 465.476 613.627 458.601V384.154C613.635 377.279 616.363 370.687 621.214 365.826C626.064 360.965 632.641 358.23 639.5 358.222H796.653C803.513 358.23 810.089 360.965 814.94 365.826C819.79 370.687 822.518 377.279 822.526 384.154V458.601C822.518 465.476 819.79 472.067 814.94 476.929C810.089 481.79 803.513 484.525 796.653 484.533Z" fill="#F2F2F2"/>
<path d="M183.389 464.702C206.924 464.702 226.003 445.58 226.003 421.991C226.003 398.402 206.924 379.28 183.389 379.28C159.854 379.28 140.775 398.402 140.775 421.991C140.775 445.58 159.854 464.702 183.389 464.702Z" fill="white"/>
<path d="M179.165 438.284C178.207 438.286 177.273 437.975 176.506 437.399L176.459 437.363L166.444 429.678C165.98 429.322 165.59 428.878 165.297 428.371C165.004 427.864 164.813 427.304 164.736 426.723C164.659 426.142 164.697 425.552 164.848 424.986C164.999 424.42 165.259 423.889 165.615 423.424C165.97 422.958 166.414 422.568 166.92 422.275C167.426 421.982 167.985 421.791 168.565 421.715C169.144 421.638 169.733 421.677 170.298 421.828C170.863 421.98 171.392 422.242 171.856 422.599L178.343 427.584L193.672 407.547C194.027 407.082 194.471 406.692 194.977 406.399C195.482 406.106 196.041 405.916 196.62 405.839C197.199 405.763 197.788 405.801 198.353 405.953C198.917 406.104 199.446 406.365 199.91 406.722L199.814 406.851L199.912 406.724C200.847 407.444 201.459 408.507 201.614 409.679C201.768 410.851 201.452 412.037 200.736 412.976L182.705 436.544C182.288 437.087 181.752 437.527 181.138 437.828C180.524 438.13 179.849 438.286 179.165 438.284V438.284Z" fill="#3943B7"/>
<path d="M451.494 464.089C475.029 464.089 494.108 444.967 494.108 421.378C494.108 397.789 475.029 378.667 451.494 378.667C427.959 378.667 408.88 397.789 408.88 421.378C408.88 444.967 427.959 464.089 451.494 464.089Z" fill="white"/>
<path d="M447.27 437.671C446.311 437.673 445.378 437.362 444.611 436.786L444.563 436.75L434.549 429.065C433.612 428.346 432.999 427.283 432.844 426.11C432.689 424.938 433.005 423.752 433.723 422.813C434.441 421.874 435.501 421.26 436.671 421.104C437.841 420.949 439.024 421.266 439.961 421.985L446.447 426.971L461.777 406.934C462.132 406.469 462.575 406.079 463.081 405.786C463.587 405.493 464.146 405.303 464.725 405.226C465.304 405.149 465.893 405.188 466.457 405.339C467.022 405.491 467.551 405.752 468.015 406.108L467.919 406.238L468.017 406.11C468.952 406.831 469.564 407.894 469.719 409.066C469.873 410.238 469.557 411.424 468.84 412.363L450.81 435.931C450.393 436.474 449.857 436.913 449.243 437.215C448.629 437.517 447.954 437.673 447.27 437.671V437.671Z" fill="#3943B7"/>
</g>
<defs>
<clipPath id="clip0">
<rect width="889" height="748" fill="white" transform="translate(6 117)"/>
</clipPath>
</defs>
</svg>
