<svg width="904" height="904" viewBox="0 0 904 904" fill="none" xmlns="http://www.w3.org/2000/svg">
<g clip-path="url(#clip0)">
<path d="M1092.47 619.585C1084.31 628.531 1074.18 635.19 1063.19 640.361H1063.18C1062.15 640.853 1061.11 641.331 1060.07 641.783H1060.05L1060.04 641.796L1060.03 641.783H1060.01C1060.01 641.785 1060.01 641.787 1060.01 641.788C1060.01 641.79 1060.01 641.791 1060.01 641.793C1060.01 641.794 1060.01 641.795 1060 641.796C1060 641.796 1060 641.796 1060 641.796H1059.99L1059.97 641.783C1059.96 641.796 1059.96 641.796 1059.95 641.783L1059.93 641.796L1059.92 641.783H1059.91C1059.89 641.796 1059.89 641.796 1059.88 641.783H1059.87C1052.51 644.973 1044.96 647.682 1037.26 649.891C991.956 662.781 944.343 665.275 897.951 657.189C897.063 657.029 896.188 656.87 895.3 656.71V548.898C896.175 548.526 897.063 548.154 897.951 547.795C903.743 545.389 909.605 543.178 915.538 541.162C924.073 538.238 932.727 535.73 941.501 533.639C970.125 526.691 999.661 524.296 1029.03 526.541C1034.37 526.94 1039.7 527.516 1045.01 528.269C1056.13 529.824 1067.79 532.536 1078.05 537.241H1078.06C1079.56 537.946 1081.03 538.677 1082.49 539.461C1091.61 544.419 1099.3 551.238 1103.99 560.582C1105.67 563.938 1106.89 567.512 1107.59 571.203V571.229C1107.86 572.505 1108.04 573.794 1108.19 575.071C1109.86 590.808 1103.35 607.649 1092.47 619.585Z" fill="#F2F2F2"/>
<path d="M1108.19 575.07C1108.06 575.102 1107.93 575.12 1107.79 575.123C1085.09 576.12 1062.42 577.6 1039.77 579.563H1039.74C1039.64 579.576 1039.56 579.576 1039.47 579.589C1016.22 581.61 993.026 584.14 969.877 587.179C968.896 587.312 967.928 587.445 966.961 587.565C950.951 589.705 934.972 592.079 919.023 594.689C911.986 595.846 904.962 597.051 897.951 598.305C897.063 598.464 896.188 598.61 895.3 598.783V594.756C896.188 594.583 897.076 594.437 897.951 594.277C921.303 590.13 944.735 586.51 968.247 583.417C974.158 582.62 980.077 581.867 986.006 581.158C1003.13 579.084 1020.28 577.294 1037.46 575.788C1038.71 575.681 1039.96 575.575 1041.22 575.469C1063.21 573.595 1085.22 572.172 1107.27 571.202C1107.38 571.197 1107.49 571.206 1107.59 571.229C1109.71 571.415 1110.16 574.605 1108.19 575.07Z" fill="white"/>
<path d="M941.501 533.639C941.38 534.012 941.163 534.348 940.873 534.611C940.582 534.875 940.227 535.057 939.845 535.141C933.363 536.844 927.101 539.297 921.184 542.451C912.544 547.028 904.698 552.975 897.951 560.063C897.593 560.422 897.249 560.781 896.917 561.153C896.36 561.738 895.83 562.336 895.3 562.948V557.152C896.148 556.248 897.036 555.358 897.951 554.507C903.278 549.391 909.18 544.913 915.538 541.162C924.073 538.238 932.728 535.73 941.501 533.639Z" fill="white"/>
<path d="M1134.63 423.302C1131.55 435.026 1125.66 445.646 1118.33 455.336L1118.31 455.349C1117.64 456.253 1116.94 457.17 1116.21 458.047V458.061C1111.12 464.348 1105.62 470.293 1099.76 475.859C1078.68 496.008 1054.86 513.07 1029.03 526.541C988.378 547.835 942.946 560.423 897.951 561.141C897.606 561.154 897.262 561.154 896.917 561.154C896.374 561.167 895.83 561.167 895.3 561.167V500.755C896.161 499.107 897.049 497.458 897.951 495.823C909.644 474.722 923.903 455.157 940.402 437.578C940.799 437.139 941.21 436.7 941.621 436.275C947.823 429.709 954.326 423.457 961.129 417.52C987.303 394.44 1017.55 376.475 1050.31 364.551C1060.87 360.75 1072.46 357.706 1083.72 357.108C1085.38 357.015 1087.02 356.975 1088.68 356.988C1099.06 357.134 1109.01 359.593 1117.51 365.681C1120.55 367.872 1123.28 370.471 1125.62 373.404C1126.44 374.427 1127.19 375.477 1127.92 376.554V376.567C1136.7 389.726 1138.74 407.657 1134.63 423.302Z" fill="#F2F2F2"/>
<path d="M1127.92 376.553V376.567C1127.82 376.652 1127.72 376.728 1127.61 376.793C1107.99 388.237 1088.62 400.098 1069.5 412.375C1069.48 412.389 1069.46 412.402 1069.44 412.415C1069.36 412.469 1069.28 412.517 1069.2 412.561C1049.54 425.189 1030.17 438.242 1011.07 451.72C1010.27 452.278 1009.46 452.85 1008.66 453.421C995.469 462.765 982.419 472.309 969.506 482.052C945.119 500.475 921.268 519.58 897.951 539.367C897.063 540.112 896.188 540.869 895.3 541.627V536.456C896.175 535.699 897.063 534.941 897.951 534.197C906.884 526.634 915.896 519.177 924.987 511.826C927.705 509.633 930.434 507.44 933.165 505.273C957.419 485.907 982.216 467.263 1007.56 449.34H1007.57C1012.55 445.818 1017.54 442.327 1022.55 438.866C1036.75 429.057 1051.12 419.482 1065.65 410.142C1066.69 409.464 1067.75 408.786 1068.81 408.109C1087.41 396.199 1106.25 384.679 1125.33 373.549C1125.42 373.493 1125.52 373.444 1125.62 373.403C1127.61 372.605 1129.47 375.237 1127.92 376.553Z" fill="white"/>
<path d="M948.062 398.751V398.765C947.969 399.908 947.863 401.038 947.744 402.167V402.194C946.822 410.236 945.383 418.21 943.436 426.066C942.509 429.921 941.501 433.749 940.402 437.577C940.269 438.069 940.123 438.561 939.977 439.039V439.053C936.74 450.186 932.873 461.126 928.394 471.818C920.153 491.503 909.954 510.304 897.951 527.937C897.089 529.226 896.202 530.515 895.3 531.791V323.638C896.188 323.585 897.063 323.585 897.951 323.611C898.375 323.611 898.799 323.625 899.223 323.651C902.963 323.848 906.656 324.569 910.197 325.791C911.443 326.203 912.649 326.669 913.842 327.187C928.301 333.541 939.66 347.55 944.589 362.956C948.287 374.493 949.029 386.629 948.062 398.751Z" fill="#F2F2F2"/>
<path d="M913.842 327.187C913.811 327.317 913.762 327.442 913.696 327.559C908.328 338.02 903.08 348.534 897.951 359.101C897.063 360.922 896.175 362.756 895.3 364.577V355.539C896.175 353.731 897.059 351.923 897.951 350.116C901.914 342.061 905.943 334.041 910.038 326.057C910.083 325.964 910.136 325.875 910.197 325.791C911.416 324.037 914.438 325.233 913.842 327.187Z" fill="white"/>
<path d="M948.486 400.891C948.247 401.316 948.009 401.742 947.743 402.167C943.852 408.969 939.22 415.317 933.933 421.095C923.78 432.143 911.552 441.073 897.951 447.373C897.076 447.799 896.188 448.197 895.3 448.57V444.25C896.188 443.851 897.076 443.439 897.951 443.014C917.639 433.595 933.993 418.376 944.828 399.389C944.984 399.118 945.197 398.884 945.451 398.702C945.706 398.521 945.996 398.396 946.303 398.337C946.609 398.278 946.925 398.285 947.229 398.359C947.532 398.433 947.816 398.571 948.062 398.764C948.229 398.876 948.373 399.02 948.484 399.187C948.596 399.354 948.674 399.542 948.713 399.74C948.753 399.937 948.753 400.14 948.714 400.338C948.675 400.536 948.597 400.724 948.486 400.891V400.891Z" fill="white"/>
<path d="M186.246 216.026C200.885 216.026 212.752 204.123 212.752 189.441C212.752 174.76 200.885 162.857 186.246 162.857C171.606 162.857 159.739 174.76 159.739 189.441C159.739 204.123 171.606 216.026 186.246 216.026Z" fill="white"/>
<path d="M717.705 216.026C732.344 216.026 744.212 204.123 744.212 189.441C744.212 174.76 732.344 162.857 717.705 162.857C703.066 162.857 691.198 174.76 691.198 189.441C691.198 204.123 703.066 216.026 717.705 216.026Z" fill="white"/>
<path d="M183.988 466.097C207.602 466.097 226.746 446.898 226.746 423.214C226.746 399.531 207.602 380.332 183.988 380.332C160.373 380.332 141.23 399.531 141.23 423.214C141.23 446.898 160.373 466.097 183.988 466.097Z" fill="white"/>
<path d="M741.975 624.955C743.38 623.414 744.431 621.584 745.053 619.592C745.676 617.6 745.856 615.495 745.58 613.426C745.305 611.357 744.58 609.374 743.457 607.616C742.334 605.858 740.841 604.369 739.082 603.252L715.211 475.419L686.18 486.216L718.773 608.477C717.099 611.564 716.613 615.161 717.406 618.584C718.199 622.007 720.217 625.02 723.076 627.051C725.936 629.082 729.44 629.991 732.923 629.604C736.406 629.218 739.627 627.564 741.975 624.955V624.955Z" fill="#FFCEA9"/>
<path d="M510.326 429.895C510.398 430.689 510.408 431.487 510.355 432.283L566.801 475.853L582.808 469.261L595.886 492.189L568.679 506.621C566.481 507.787 563.965 508.206 561.51 507.816C559.054 507.426 556.79 506.248 555.059 504.458L498.638 446.12C495.652 446.795 492.531 446.543 489.691 445.396C486.851 444.249 484.426 442.263 482.739 439.7C481.053 437.138 480.184 434.121 480.248 431.051C480.313 427.981 481.308 425.004 483.101 422.515C484.894 420.026 487.399 418.143 490.285 417.118C493.171 416.092 496.3 415.972 499.255 416.773C502.211 417.574 504.853 419.259 506.831 421.603C508.808 423.947 510.027 426.839 510.326 429.895H510.326Z" fill="#FFCEA9"/>
<path d="M642.198 851.849H625.951L618.22 802.285L642.202 802.287L642.198 851.849Z" fill="#FFCEA9"/>
<path d="M646.342 867.646L593.951 867.644V866.979C593.951 864.294 594.479 861.634 595.503 859.153C596.528 856.671 598.03 854.417 599.924 852.518C601.817 850.619 604.065 849.112 606.54 848.084C609.014 847.057 611.665 846.528 614.343 846.528H614.345L646.343 846.529L646.342 867.646Z" fill="#2F2E41"/>
<path d="M703.164 851.849H686.916L679.186 802.285L703.167 802.287L703.164 851.849Z" fill="#FFCEA9"/>
<path d="M707.308 867.646L654.917 867.644V866.979C654.916 864.294 655.444 861.634 656.469 859.153C657.493 856.671 658.996 854.417 660.889 852.518C662.783 850.619 665.031 849.112 667.505 848.084C669.979 847.057 672.631 846.528 675.309 846.528H675.31L707.309 846.529L707.308 867.646Z" fill="#2F2E41"/>
<path d="M622.577 842.053C621.093 842.054 619.663 841.5 618.566 840.499C617.469 839.497 616.784 838.121 616.646 836.64L602.487 645.648L603.156 645.593L700.596 637.561L700.622 638.255L708.368 836.108C708.398 836.912 708.266 837.713 707.98 838.465C707.694 839.216 707.26 839.902 706.703 840.481C706.147 841.06 705.48 841.521 704.742 841.836C704.004 842.15 703.21 842.313 702.408 842.312H683.302C681.876 842.319 680.495 841.81 679.412 840.879C678.33 839.948 677.618 838.656 677.408 837.241L651.463 677.411C651.438 677.246 651.351 677.096 651.221 676.992C651.091 676.888 650.926 676.837 650.76 676.849C650.594 676.861 650.438 676.936 650.325 677.058C650.211 677.18 650.147 677.34 650.145 677.507L648.969 835.315C648.956 836.839 648.365 838.301 647.315 839.403C646.265 840.505 644.836 841.164 643.318 841.246L622.897 842.044C622.79 842.05 622.682 842.053 622.577 842.053Z" fill="#2F2E41"/>
<path d="M639.208 404.275C657.186 404.275 671.759 389.658 671.759 371.628C671.759 353.598 657.186 338.981 639.208 338.981C621.23 338.981 606.656 353.598 606.656 371.628C606.656 389.658 621.23 404.275 639.208 404.275Z" fill="#FFCEA9"/>
<path d="M645.51 657.829C631.282 657.786 617.123 655.845 603.406 652.058C602.086 651.672 600.938 650.842 600.157 649.708C599.376 648.573 599.009 647.203 599.117 645.828C603.5 579.776 604.53 528.517 595.315 493.051C591.387 477.935 593.171 462.015 600.207 449.374C610.796 430.349 630.259 418.769 651.02 419.169C652.012 419.188 653.014 419.224 654.026 419.276C685.533 420.903 710.084 449.489 708.755 483L702.418 642.729C702.394 643.894 702.028 645.026 701.364 645.983C700.7 646.939 699.768 647.677 698.686 648.104C681.686 654.518 663.673 657.812 645.51 657.829Z" fill="#3F3D56"/>
<path d="M600.672 505.314L576.289 475.348C575.595 474.496 575.093 473.503 574.816 472.438C574.539 471.373 574.494 470.261 574.685 469.177C574.875 468.093 575.296 467.064 575.919 466.158C576.543 465.252 577.353 464.491 578.296 463.928L611.325 444.189C615.695 440.653 621.284 439 626.868 439.591C632.451 440.182 637.573 442.97 641.11 447.343C644.648 451.716 646.311 457.317 645.736 462.919C645.161 468.52 642.395 473.665 638.044 477.223L612.23 505.633C611.491 506.446 610.585 507.09 609.575 507.52C608.566 507.951 607.475 508.158 606.378 508.128C605.281 508.098 604.204 507.831 603.219 507.345C602.234 506.86 601.366 506.167 600.672 505.314V505.314Z" fill="#3F3D56"/>
<path d="M677.375 501.554C676.374 501.105 675.48 500.444 674.757 499.617C674.033 498.79 673.496 497.815 673.182 496.761L662.205 459.935C659.822 454.836 659.553 448.997 661.457 443.699C663.361 438.401 667.282 434.076 672.361 431.674C677.44 429.272 683.261 428.987 688.548 430.884C693.836 432.78 698.157 436.702 700.565 441.789L721.792 473.941C722.398 474.858 722.799 475.896 722.969 476.983C723.139 478.071 723.073 479.182 722.776 480.241C722.479 481.301 721.958 482.283 721.248 483.123C720.538 483.962 719.656 484.638 718.662 485.104L683.734 501.501C682.74 501.968 681.658 502.215 680.56 502.224C679.463 502.233 678.377 502.005 677.375 501.554V501.554Z" fill="#3F3D56"/>
<path d="M655.294 398.415L631.164 392.876C628.676 392.305 625.685 391.215 625.34 388.678C624.876 385.268 629.769 382.893 629.317 379.482C628.88 376.177 624.424 375.752 621.246 374.776C618.286 373.735 615.846 371.58 614.443 368.766C613.04 365.953 612.784 362.702 613.728 359.703C610.29 364.562 602.434 364.979 597.974 361.041C593.515 357.104 592.659 349.961 595.337 344.642C596.784 342.029 598.826 339.796 601.295 338.124C603.765 336.451 606.593 335.387 609.55 335.018C615.496 334.342 621.507 335.466 626.81 338.245C627.164 334.479 631.852 332.952 635.624 332.918C643.459 333.01 651.07 335.549 657.399 340.182C663.728 344.815 668.459 351.311 670.935 358.767C675.563 373.723 672.467 390.118 659.518 398.869L655.294 398.415Z" fill="#2F2E41"/>
</g>
<defs>
<clipPath id="clip0">
<rect width="892" height="751" fill="white" transform="translate(6 117)"/>
</clipPath>
</defs>
</svg>
