<svg width="904" height="904" viewBox="0 0 904 904" fill="none" xmlns="http://www.w3.org/2000/svg">
<g clip-path="url(#clip0)">
<path d="M95.3269 359.568L61.3558 397.61C89.5773 409.569 118.145 392.967 129.855 384.644C167.668 405.401 211.976 410.986 253.766 400.265C295.555 389.543 331.685 363.319 354.805 326.929C377.926 290.538 386.299 246.716 378.221 204.377C370.143 162.038 346.222 124.364 311.324 99.0198C276.425 73.6757 233.172 62.5659 190.365 67.9506C147.557 73.3353 108.412 94.8101 80.8923 128.006C53.373 161.201 39.5476 203.623 42.2291 246.641C44.9106 289.659 63.8976 330.04 95.3269 359.568V359.568Z" fill="#E6E6E6"/>
<path d="M120.023 208.317C155.069 207.953 190.111 207.327 225.156 206.851C236.839 206.693 248.522 206.554 260.206 206.434C270.273 206.33 270.299 190.692 260.206 190.797C225.16 191.161 190.118 191.787 155.073 192.263C143.39 192.421 131.707 192.56 120.023 192.68C109.956 192.784 109.931 208.422 120.023 208.317V208.317Z" fill="white"/>
<path d="M120.023 244.805L261.666 243.339L301.95 242.922C312.017 242.818 312.042 227.18 301.95 227.285L160.307 228.751L120.023 229.168C109.956 229.272 109.931 244.91 120.023 244.805V244.805Z" fill="white"/>
<path d="M120.023 281.293L261.666 279.827L301.95 279.41C312.017 279.306 312.042 263.668 301.95 263.773L160.307 265.239L120.023 265.656C109.956 265.76 109.931 281.398 120.023 281.293V281.293Z" fill="white"/>
<path d="M16.3409 430.511C23.1566 430.511 28.6819 424.991 28.6819 418.182C28.6819 411.374 23.1566 405.854 16.3409 405.854C9.52522 405.854 4 411.374 4 418.182C4 424.991 9.52522 430.511 16.3409 430.511Z" fill="#E6E6E6"/>
<path d="M595.455 365.989C595.44 328.914 583.234 292.871 560.712 263.403C538.191 233.934 506.603 212.673 470.805 202.889C435.008 193.104 396.984 195.339 362.582 209.249C328.18 223.159 299.305 247.974 280.398 279.877C261.492 311.78 253.6 349.005 257.938 385.826C262.275 422.647 278.601 457.024 304.405 483.672C330.209 510.319 364.061 527.76 400.756 533.312C437.451 538.864 474.955 532.22 507.501 514.402C519.211 522.725 547.779 539.327 576 527.368L542.029 489.327C558.916 473.521 572.372 454.417 581.563 433.2C590.753 411.983 595.481 389.107 595.455 365.989Z" fill="#3943B7"/>
<path d="M339.449 338.075C374.495 337.711 409.537 337.085 444.582 336.609C456.265 336.451 467.948 336.312 479.632 336.192C489.699 336.088 489.724 320.45 479.632 320.555C444.585 320.919 409.544 321.545 374.499 322.021C362.816 322.179 351.133 322.318 339.449 322.438C329.382 322.542 329.356 338.18 339.449 338.075V338.075Z" fill="white"/>
<path d="M339.449 374.564L481.092 373.098L521.375 372.681C531.442 372.577 531.468 356.939 521.375 357.043L379.733 358.509L339.449 358.926C329.382 359.03 329.356 374.668 339.449 374.564V374.564Z" fill="white"/>
<path d="M339.449 411.052L481.092 409.586L521.375 409.169C531.442 409.065 531.468 393.427 521.375 393.531L379.733 394.997L339.449 395.414C329.382 395.518 329.356 411.156 339.449 411.052Z" fill="white"/>
</g>
<defs>
<clipPath id="clip0">
<rect width="894" height="794" fill="white" transform="translate(4 67)"/>
</clipPath>
</defs>
</svg>
