<svg width="904" height="904" viewBox="0 0 904 904" fill="none" xmlns="http://www.w3.org/2000/svg">
<g clip-path="url(#clip0)">
<path d="M629.67 492.561L622.771 535.575C622.339 538.27 621.32 540.838 619.786 543.097C618.252 545.355 616.24 547.25 613.893 548.648C611.546 550.045 608.92 550.91 606.201 551.183C603.483 551.456 600.737 551.129 598.159 550.226V550.226C595.594 549.328 593.256 547.882 591.309 545.987C589.362 544.093 587.852 541.797 586.885 539.26C585.918 536.722 585.518 534.004 585.711 531.296C585.905 528.588 586.688 525.955 588.006 523.58L610.452 483.137L697.225 309.999C700.64 304.241 705.867 299.775 712.09 297.296C718.313 294.817 725.182 294.466 731.626 296.296L740.82 298.907L727.147 338.958L629.67 492.561Z" fill="#FFCEA9"/>
<path d="M869.132 794.962L889.444 793.893L866.994 719.137L834.921 725.545L869.132 794.962Z" fill="#FFCEA9"/>
<path d="M666.01 808.846H688.461L700.22 736.223H666.01V808.846Z" fill="#FFCEA9"/>
<path d="M701.597 195.391C701.596 211.332 707.891 226.63 719.115 237.962C730.338 249.294 745.584 255.745 761.541 255.914C777.497 256.083 792.877 249.956 804.338 238.865C815.8 227.773 822.418 212.613 822.756 196.675C822.774 196.253 822.774 195.813 822.774 195.391C822.778 187.44 821.214 179.567 818.17 172.22C815.127 164.873 810.665 158.198 805.038 152.574C799.412 146.951 792.731 142.49 785.378 139.446C778.026 136.403 770.145 134.836 762.186 134.836C754.227 134.836 746.345 136.403 738.993 139.446C731.64 142.49 724.959 146.951 719.333 152.574C713.706 158.198 709.244 164.873 706.201 172.22C703.158 179.567 701.593 187.44 701.597 195.391Z" fill="#2F2E41"/>
<path d="M787.89 162.377C805.128 162.377 819.102 148.417 819.102 131.197C819.102 113.977 805.128 100.017 787.89 100.017C770.652 100.017 756.677 113.977 756.677 131.197C756.677 148.417 770.652 162.377 787.89 162.377Z" fill="#2F2E41"/>
<path d="M784.634 155.031C790.658 157.23 797.214 157.522 803.41 155.866C809.605 154.21 815.14 150.687 819.26 145.777C823.38 140.867 825.886 134.808 826.436 128.425C826.986 122.042 825.554 115.644 822.335 110.103C825.282 113.337 827.515 117.154 828.888 121.307C830.262 125.459 830.745 129.854 830.307 134.206C829.869 138.557 828.519 142.768 826.346 146.564C824.172 150.36 821.223 153.657 817.69 156.24C814.158 158.823 810.12 160.635 805.841 161.557C801.561 162.48 797.136 162.492 792.851 161.594C788.566 160.696 784.519 158.907 780.972 156.344C777.425 153.78 774.457 150.5 772.262 146.716C775.649 150.451 779.895 153.304 784.634 155.031V155.031Z" fill="#2F2E41"/>
<path d="M757.406 261.832C776.74 261.832 792.414 246.175 792.414 226.861C792.414 207.547 776.74 191.89 757.406 191.89C738.073 191.89 722.399 207.547 722.399 226.861C722.399 246.175 738.073 261.832 757.406 261.832Z" fill="#FFCEA9"/>
<path d="M782.538 239.622C782.538 239.622 785.745 280.204 806.057 288.748L726.946 361.369L701.289 349.622L719.463 298.36C719.463 298.36 761.156 289.816 744.051 252.437L782.538 239.622Z" fill="#FFCEA9"/>
<path d="M647.835 742.632L705.565 745.836L732.291 545.059L801.781 744.768L871.27 722.34L802.85 493.797C785.233 430.576 800.054 361.098 824.231 289.816L797.504 282.34L736.568 290.884C730.267 290.894 724.084 292.583 718.655 295.778C713.227 298.974 708.751 303.558 705.69 309.059C690.679 335.908 679.826 361.955 688.675 384.207C653.197 476.964 645.547 603.726 647.835 742.632Z" fill="#2F2E41"/>
<path d="M818.886 510.884L804.04 551.845C803.11 554.412 802.755 557.151 803 559.869C803.245 562.588 804.085 565.22 805.459 567.579C806.834 569.938 808.71 571.966 810.955 573.522C813.201 575.078 815.76 576.122 818.454 576.581V576.581C821.133 577.038 823.879 576.905 826.502 576.192C829.124 575.478 831.559 574.202 833.636 572.451C835.714 570.7 837.383 568.517 838.528 566.055C839.674 563.593 840.267 560.91 840.267 558.195V511.952L848.421 318.498C848.229 311.808 845.826 305.37 841.587 300.188C837.348 295.005 831.511 291.37 824.986 289.85L815.679 287.68L808.195 329.331L818.886 510.884Z" fill="#FFCEA9"/>
<path d="M876.4 854.322C880.703 854.448 884.919 853.102 888.351 850.505C891.782 847.909 894.222 844.219 895.266 840.048L895.977 837.209C899.378 823.619 898.475 809.31 893.392 796.255L886.237 777.875L864.856 787.486L858.276 832.766C857.894 835.397 858.073 838.078 858.801 840.635C859.529 843.192 860.791 845.566 862.502 847.602C864.213 849.637 866.337 851.288 868.732 852.446C871.127 853.604 873.74 854.243 876.4 854.322V854.322Z" fill="#2F2E41"/>
<path d="M631.63 858.658C633.97 860.081 636.635 860.883 639.373 860.988C642.11 861.094 644.83 860.499 647.272 859.26L687.983 836.354C690.622 834.868 692.736 832.601 694.031 829.864C695.326 827.128 695.738 824.058 695.212 821.077L690.598 794.962H664.941L628.273 833.93C626.634 835.672 625.405 837.757 624.675 840.035C623.945 842.312 623.733 844.723 624.055 847.092C624.376 849.462 625.223 851.729 626.534 853.73C627.844 855.731 629.585 857.414 631.63 858.658V858.658Z" fill="#2F2E41"/>
<path d="M702.147 187.229C711.64 210.211 736.169 226.571 764.94 226.571C789.579 226.571 811.115 214.576 822.756 196.675C822.774 196.253 822.774 195.813 822.774 195.391C822.774 180.047 816.939 165.275 806.451 154.064C795.963 142.853 781.604 136.041 766.279 135.004C750.953 133.967 735.806 138.783 723.9 148.479C711.994 158.174 704.219 172.025 702.147 187.229V187.229Z" fill="#2F2E41"/>
</g>
<defs>
<clipPath id="clip0">
<rect width="894" height="794" fill="white" transform="translate(4 67)"/>
</clipPath>
</defs>
</svg>
