<svg width="96" height="96" viewBox="0 0 96 96" fill="none" xmlns="http://www.w3.org/2000/svg">
<path d="M59.2112 3.73724H47.9995V10.7445H55.7074V23.9415C55.7074 35.5327 46.2767 44.9634 34.6855 44.9634C23.0942 44.9634 13.6637 35.5329 13.6637 23.9417V10.7445H21.1382V3.73724H10.1601C8.22489 3.73724 6.65646 5.30568 6.65646 7.24087V23.9417C6.65646 39.3975 19.2298 51.9709 34.6856 51.9709C50.1415 51.9709 62.7148 39.3975 62.7148 23.9417V7.24087C62.7148 5.30568 61.1464 3.73724 59.2112 3.73724Z" fill="#3943B7"/>
<path d="M72.8753 54.8904V71.4744C72.8753 81.134 65.0166 88.9927 55.357 88.9927C45.6973 88.9927 37.8387 81.134 37.8387 71.4744V48.5839H30.8314V71.4744C30.8314 84.9973 41.8328 96 55.357 96C68.8798 96 79.8825 84.9973 79.8825 71.4744V54.8904H72.8753Z" fill="#3943B7"/>
<path d="M76.3801 32.2335C69.2304 32.2335 63.4155 38.0484 63.4155 45.1971C63.4155 52.3446 69.2304 58.1606 76.379 58.1606C83.5276 58.1606 89.3426 52.3446 89.3437 45.1971C89.3435 38.0484 83.5276 32.2335 76.3801 32.2335ZM76.379 51.1534C73.0938 51.1534 70.4216 48.4813 70.4216 45.1972C70.4216 41.9132 73.0936 39.2411 76.379 39.2411C79.6631 39.2411 82.3351 41.9132 82.3351 45.1972C82.3351 48.4813 79.6631 51.1534 76.379 51.1534Z" fill="#3943B7"/>
<path d="M21.0214 0C19.0862 0 17.5178 1.56844 17.5178 3.50363V10.9781C17.5178 12.9133 19.0862 14.4818 21.0214 14.4818C22.9566 14.4818 24.525 12.9133 24.525 10.9781V3.50363C24.525 1.56844 22.9566 0 21.0214 0Z" fill="#3943B7"/>
<path d="M48.1163 0C46.1811 0 44.6127 1.56844 44.6127 3.50363V10.9781C44.6127 12.9133 46.1811 14.4818 48.1163 14.4818C50.0515 14.4818 51.6199 12.9133 51.6199 10.9781V3.50363C51.6199 1.56844 50.0515 0 48.1163 0Z" fill="#3943B7"/>
</svg>
