<svg width="904" height="904" viewBox="0 0 904 904" fill="none" xmlns="http://www.w3.org/2000/svg">
<path d="M304.487 367.922C304.487 367.922 300.581 367.377 300.581 361.695C300.581 356.014 297.785 345.374 297.785 345.374C297.785 345.374 295.367 326.862 292.026 323.927C288.685 320.992 284.393 303.759 284.393 303.759C284.393 303.759 283.659 294.409 282.162 292.396C280.665 290.383 278.643 285.455 275.659 278.425C272.675 271.395 260.264 266.576 260.264 266.576C260.264 266.576 237.77 253.527 231.396 249.273C230.813 248.921 230.268 248.508 229.77 248.044C228.66 246.596 223.822 246.566 223.822 246.566C223.317 243.363 222.831 239.695 222.673 236.373C222.673 236.016 222.673 235.659 222.673 235.302C229.78 231.1 235.134 224.474 237.751 216.641C237.87 216.264 237.969 215.878 238.078 215.491C238.513 215.357 238.914 215.132 239.256 214.831C239.598 214.53 239.872 214.16 240.06 213.746C240.625 212.467 240.645 210.979 241.359 209.78C242.192 208.372 243.778 207.618 245.027 206.567C248.179 203.88 248.992 199.368 248.844 195.273C248.744 191.941 248.209 188.59 248.417 185.288C248.417 185.011 248.417 184.733 248.477 184.455C248.536 183.969 248.606 183.464 248.695 182.988C249.181 180.529 250.241 178.209 250.836 175.769C251.431 173.33 251.49 170.583 250.103 168.481C248.07 165.398 243.837 164.783 240.12 164.515C235.907 164.158 232.189 164.614 229.443 161.114C228.184 159.286 226.764 157.574 225.2 155.998C224.645 155.482 219.252 152.18 219.252 151.972C213.976 149.518 207.99 149.057 202.4 150.673C199.594 151.486 196.967 152.815 194.122 153.479C188.016 154.927 180.977 153.36 175.783 156.86C172.888 158.843 171.153 162.007 169.527 165.07C168.206 167.596 166.864 170.124 165.503 172.656C163.302 176.81 161.081 181.034 160.159 185.635C159.967 186.64 159.844 187.657 159.793 188.679V188.679C159.793 189.046 159.793 189.413 159.793 189.78C159.793 189.939 159.793 190.097 159.793 190.256C159.793 190.593 159.793 190.93 159.852 191.247C159.912 191.565 159.852 191.654 159.922 191.862C159.991 192.07 160.011 192.536 160.07 192.854C160.13 193.171 160.249 193.736 160.368 194.163C160.368 194.351 160.487 194.529 160.546 194.718C160.605 194.906 160.764 195.382 160.893 195.709C161.022 196.037 161.032 196.056 161.111 196.225C161.26 196.572 161.438 196.909 161.617 197.217C161.696 197.345 161.755 197.474 161.835 197.603C162.107 198.067 162.411 198.511 162.747 198.932C164.858 201.579 167.991 203.265 170.301 205.744C170.301 205.843 170.301 205.942 170.301 206.041C170.301 206.309 170.301 206.577 170.301 206.854C170.442 212.383 171.932 217.794 174.641 222.616C177.35 227.437 181.196 231.523 185.845 234.519C185.845 234.896 185.894 235.282 185.914 235.669C186.107 238.609 186.071 241.56 185.805 244.494C185.4 244.019 184.895 243.641 184.326 243.387C183.756 243.134 183.137 243.01 182.514 243.026C182.088 243.005 181.661 243.042 181.245 243.135L181.156 243.066V243.155C178.975 243.691 176.288 245.961 173.721 252.416C173.721 252.416 165.909 261.221 159.961 260.854C154.013 260.488 138.955 270.026 138.955 270.026C138.955 270.026 124.263 279.555 121.111 289.272C119.349 294.784 117.233 300.176 114.776 305.415L96.5657 342.816L93.225 372.563C93.225 372.563 95.0788 385.76 94.712 387.783C94.3452 389.806 102.335 407.951 102.335 407.951C102.335 407.951 128.734 454.336 139.52 456.716L140.293 456.18C140.757 456.414 141.246 456.594 141.75 456.716L143.971 455.159C144.109 456.902 144.049 458.655 143.793 460.385C142.316 464.975 144.358 494.861 146.955 500.721C149.552 506.581 148.63 583.426 148.63 583.426L148.264 590.199C148.264 590.199 148.263 590.417 148.353 590.794L148.264 592.4L148.531 592.539C148.809 594.693 148.718 596.879 148.264 599.004C147.332 601.978 146.955 610.377 146.955 610.377C146.955 610.377 139.52 657.852 143.049 667.391C146.578 676.93 149.562 687.381 149.562 687.381C149.562 687.381 153.28 699.279 149.741 701.262C146.202 703.246 136.179 706.766 138.221 711.713C140.105 716.294 147.252 728.57 148.313 730.364L148.224 731.356L146.767 747.151C147.003 749.237 147.568 751.272 148.442 753.18C150.038 756.631 153.131 760.19 159.039 759.804C160.031 759.734 161.171 759.625 162.291 759.476C173.086 758.019 186.37 753.2 186.37 753.2C185.681 752.764 185.052 752.24 184.497 751.643V751.643C183.966 751.129 183.545 750.512 183.261 749.83C182.976 749.149 182.833 748.416 182.841 747.677C183 744.792 177.617 731.098 176.269 727.717L175.961 726.963C175.961 726.963 188.234 714.123 186.192 702.76C186.192 702.76 172.611 694.827 177.081 690.464C181.552 686.102 189.542 673.608 189.542 673.608C189.542 673.608 189.909 626.856 189.542 619.886C189.16 615.037 189.39 610.16 190.226 605.369C190.375 604.655 190.554 603.951 190.742 603.247C196.93 604.182 203.18 604.655 209.438 604.665C211.725 604.665 214.038 604.619 216.378 604.527C216.378 605.188 216.407 605.901 216.467 606.668C216.982 618.25 217.944 638.567 218.727 646.112C219.837 656.92 225.974 686.082 225.974 686.082C225.974 686.082 214.266 693.588 228.016 712.12C228.016 712.12 228.016 718.823 227.104 719.804C226.129 722.984 225.345 726.219 224.754 729.492C224.179 732.972 223.941 736.512 224.873 738.337C227.104 742.719 240.487 742.362 240.487 742.362C240.594 742.337 240.704 742.321 240.814 742.313C243.34 742.046 245.894 742.285 248.326 743.017C250.759 743.749 253.021 744.959 254.98 746.576C260.065 750.662 279.357 748.877 289.815 747.568C293.909 747.042 296.645 746.576 296.645 746.576C296.777 746.113 296.824 745.629 296.784 745.149V745.149C296.675 742.58 294.663 736.948 281.022 731.921C281.022 731.921 268.194 723.295 268.373 715.779H268.085H266.608C267.54 715.749 268.194 715.749 268.194 715.749C268.194 715.749 263.168 697.415 265.22 695.918C267.272 694.421 261.126 674.104 261.126 674.104C261.126 674.104 257.607 639.994 257.409 637.615C257.422 635.564 257.736 633.526 258.341 631.566L257.409 612.856C257.409 612.856 257.23 606.639 257.409 604.616C257.389 602.86 257.25 601.107 256.992 599.37C256.903 598.676 256.814 597.953 256.715 597.239C261.523 596.019 264.645 594.899 264.645 594.899L264.09 529.803C268.174 521.871 268.928 504.459 268.908 492.124C268.908 484.192 268.551 478.322 268.551 478.322L274.132 469.209C274.132 469.209 275.421 458.302 273.379 455.913C272.477 454.832 272.883 453.711 273.627 452.789C274.018 452.469 274.432 452.177 274.866 451.917C274.817 451.848 274.774 451.775 274.737 451.699C275.127 451.373 275.541 451.078 275.976 450.816C275.976 450.816 273.994 447.742 275.768 446.443C277.434 447.574 278.921 448.476 280.051 449.12C279.971 449.844 279.892 450.261 279.892 450.261L280.368 449.269C281.458 449.884 282.122 450.261 282.122 450.261C282.122 450.261 290.866 432.839 290.678 430.281C290.489 427.723 296.626 416.895 296.626 416.895C296.626 416.895 297.369 411.204 300.72 408.824C304.07 406.444 303.317 389.201 303.317 389.201C303.317 389.201 304.249 380.218 306.479 376.559C308.71 372.9 304.487 367.922 304.487 367.922ZM137.19 360.277L137.359 364.432C136.368 362.836 135.654 361.695 135.654 361.695L137.19 360.277Z" fill="url(#paint0_linear)"/>
<path d="M282.638 442.725L280.497 451.847C280.497 451.847 263.347 443.072 260.264 431.967C257.181 420.861 265.429 416.627 265.429 416.627L281.419 423.39L282.638 442.725Z" fill="white"/>
<path opacity="0.1" d="M282.638 442.725L280.497 451.847C280.497 451.847 263.347 443.072 260.264 431.967C257.181 420.861 265.429 416.627 265.429 416.627L281.419 423.39L282.638 442.725Z" fill="black"/>
<path d="M186.39 753.19C186.39 753.19 170.529 759.021 159.624 759.754C153.835 760.141 150.792 756.591 149.225 753.17C148.374 751.284 147.819 749.277 147.58 747.221L149.017 731.505L149.771 723.146L172.938 717.118L176.219 727.162L176.527 727.916C177.835 731.277 183.129 744.901 182.97 747.747C182.958 748.483 183.094 749.214 183.372 749.895C183.65 750.577 184.063 751.195 184.586 751.713C185.123 752.28 185.729 752.776 186.39 753.19V753.19Z" fill="white"/>
<path d="M294.683 745.198C294.724 745.679 294.677 746.163 294.544 746.626C294.544 746.626 260.621 752.278 253.681 746.626C251.731 744.975 249.457 743.749 247.006 743.027C244.555 742.305 241.98 742.102 239.446 742.432C239.446 742.432 226.321 742.789 224.13 738.465C223.218 736.651 223.456 733.131 224.021 729.67C224.598 726.415 225.366 723.197 226.321 720.032L226.846 719.616L229.969 717.107L266.529 716.027H266.807C266.628 723.503 279.208 732.08 279.208 732.08C292.601 737.038 294.574 742.64 294.683 745.198Z" fill="white"/>
<path opacity="0.1" d="M294.692 745.198C294.727 745.679 294.677 746.163 294.544 746.626C294.544 746.626 260.62 752.278 253.691 746.626C251.739 744.974 249.464 743.747 247.011 743.025C244.558 742.303 241.981 742.101 239.445 742.432C239.445 742.432 226.31 742.789 224.12 738.465C223.217 736.651 223.445 733.131 224.01 729.66C229.066 730.166 237.046 731.425 240.179 734.44C244.918 739.001 252.947 743.562 257.864 743.929C261.75 744.167 284.858 744.901 294.692 745.198Z" fill="black"/>
<path opacity="0.1" d="M186.39 753.19C186.39 753.19 170.528 759.02 159.624 759.754C153.834 760.141 150.791 756.591 149.225 753.17C153.269 754.528 158.87 755.946 161.815 754.647C165.304 753.091 177.676 752.099 184.615 751.673C185.138 752.253 185.735 752.763 186.39 753.19V753.19Z" fill="black"/>
<path d="M209.924 283.303C196.839 278.216 180.006 261.409 184.209 253.556C185.138 251.573 185.693 249.435 185.845 247.25C186.116 244.283 186.155 241.299 185.964 238.326C185.669 233.453 185.083 228.603 184.209 223.8C184.209 223.8 225.062 224.722 222.683 230.741C221.989 232.516 221.87 235.58 222.068 239C222.266 242.421 222.752 246.318 223.268 249.6C223.972 254.092 224.695 257.533 224.695 257.533C224.695 257.533 222.187 261.033 220.73 261.221C219.273 261.409 228.7 290.591 209.924 283.303Z" fill="#FFCEA9"/>
<path opacity="0.1" d="M176.486 727.866L176.179 728.203C163.966 713.429 149.195 731.852 149.195 731.852L148.977 731.455L149.73 723.096L172.898 717.068L176.179 727.112L176.486 727.866Z" fill="black"/>
<path opacity="0.1" d="M266.826 717.068C266.826 717.068 257.904 716.889 253.146 721.093C248.387 725.298 225.389 721.996 226.38 721.093C226.669 720.635 226.846 720.116 226.895 719.576L230.018 717.068L266.578 715.987C266.717 716.681 266.826 717.068 266.826 717.068Z" fill="black"/>
<path d="M191.684 601.046C191.021 602.69 190.516 604.393 190.177 606.133C189.35 610.898 189.12 615.748 189.493 620.57C189.86 627.511 189.493 674.024 189.493 674.024C189.493 674.024 181.652 686.429 177.27 690.801C172.888 695.174 186.192 703.027 186.192 703.027C188.175 714.341 176.16 727.112 176.16 727.112C163.946 712.338 149.176 730.751 149.176 730.751C149.176 730.751 141.146 716.869 139.144 711.912C137.141 706.954 146.985 703.533 150.445 701.51C153.904 699.487 150.266 687.629 150.266 687.629C150.266 687.629 147.352 677.227 143.882 667.738C140.412 658.249 147.709 611.021 147.709 611.021C147.709 611.021 148.085 602.623 148.987 599.698C149.438 597.586 149.528 595.414 149.255 593.272C149.196 592.548 149.126 591.953 149.077 591.537C149.027 591.121 148.987 590.942 148.987 590.942L149.126 590.704L154.083 581.463C154.083 581.463 194.063 595.226 191.684 601.046Z" fill="#3943B7"/>
<path d="M266.826 715.977C266.826 715.977 257.904 715.789 253.146 719.943C248.387 724.098 225.389 720.856 226.38 719.943C227.371 719.031 227.282 712.289 227.282 712.289C213.79 693.856 225.299 686.379 225.299 686.379C225.299 686.379 219.282 657.376 218.191 646.618C217.428 639.112 216.486 618.854 215.981 607.382C215.763 602.424 215.634 599.004 215.634 599.004L226.558 596.832L227.976 596.554L254.563 591.21C254.563 591.21 255.297 596.168 255.793 600.223C256.043 601.954 256.179 603.7 256.199 605.449C256.031 607.432 256.199 613.649 256.199 613.649L257.111 632.25C256.523 634.203 256.216 636.23 256.199 638.269C256.387 640.649 259.847 674.57 259.847 674.57C259.847 674.57 265.865 694.817 263.812 696.275C261.76 697.733 266.826 715.977 266.826 715.977Z" fill="#3943B7"/>
<path opacity="0.1" d="M222.682 230.771C221.988 232.546 221.869 235.609 222.067 239.03C216.595 242.326 210.305 244.011 203.918 243.892C197.532 243.773 191.309 241.854 185.963 238.356C185.668 233.483 185.082 228.633 184.209 223.83C184.209 223.83 225.061 224.752 222.682 230.771Z" fill="black"/>
<path d="M238.455 208.877C238.563 217.874 235.093 226.545 228.809 232.982C222.526 239.42 213.942 243.097 204.948 243.205C195.954 243.313 187.285 239.842 180.849 233.557C174.412 227.272 170.736 218.687 170.628 209.691C170.628 209.413 170.628 209.155 170.628 208.877C170.628 199.878 174.202 191.248 180.564 184.885C186.926 178.521 195.554 174.947 204.551 174.947C213.549 174.947 222.177 178.521 228.539 184.885C234.901 191.248 238.475 199.878 238.475 208.877H238.455Z" fill="#FFCEA9"/>
<path opacity="0.1" d="M209.924 283.303C196.839 278.217 180.006 261.41 184.209 253.557C185.138 251.573 185.693 249.435 185.845 247.25L203.758 261.985L214.841 271.077L223.268 249.63C223.972 254.122 224.695 257.563 224.695 257.563C224.695 257.563 222.187 261.063 220.73 261.251C219.273 261.439 228.7 290.591 209.924 283.303Z" fill="black"/>
<path d="M256.249 348.418L241.29 599.777L221.781 601.056L171.253 455.308L179.54 282.272L181.295 245.713L203.758 264.166L214.841 273.259L223.515 251.177L239.644 265.237L256.249 348.418Z" fill="#3943B7"/>
<path opacity="0.1" d="M191.684 601.046C191.021 602.69 190.516 604.393 190.177 606.133C175.967 603.944 162.167 599.636 149.235 593.352L148.967 593.213L149.057 591.617V590.784L154.013 581.542C154.013 581.542 194.063 595.226 191.684 601.046Z" fill="black"/>
<path opacity="0.1" d="M226.886 606.173C223.257 606.793 219.597 607.214 215.922 607.432C215.704 602.474 215.575 599.053 215.575 599.053L226.559 596.832L226.886 606.173Z" fill="black"/>
<path opacity="0.1" d="M255.833 600.223C248.785 602.058 237.89 604.12 228.155 602.831L228.016 596.554L254.604 591.21C254.604 591.21 255.308 596.128 255.833 600.223Z" fill="black"/>
<path opacity="0.1" d="M227.976 603.981C187.332 610.922 150.108 591.022 150.108 591.022L150.464 584.279C150.464 584.279 151.386 507.84 148.829 501.98C146.271 496.12 144.279 466.443 145.726 461.912C147.173 457.38 140.442 388.963 140.442 388.963L139.352 361.199L99.4111 344.968L117.255 307.755C119.665 302.539 121.737 297.173 123.461 291.692C126.564 282.024 140.968 272.535 140.968 272.535C140.968 272.535 155.738 263.056 161.577 263.413C167.416 263.77 175.069 255.024 175.069 255.024C180.72 240.617 185.835 247.092 185.835 247.092C185.835 247.786 185.835 247.092 185.557 249.223C183.575 265.039 217.617 315.013 218.103 315.905L221.384 394.892L224.665 494.851L227.976 603.981Z" fill="black"/>
<path d="M226.885 603.981C186.241 610.922 149.007 591.022 149.007 591.022L149.373 584.279C149.373 584.279 150.285 507.84 147.728 501.98C145.17 496.12 143.178 466.413 144.635 461.842C146.092 457.271 139.321 388.923 139.321 388.923L138.221 361.16L98.2903 344.928L116.134 307.715C118.538 302.5 120.611 297.138 122.34 291.662C125.443 282.024 139.896 272.525 139.896 272.525C139.896 272.525 154.667 263.046 160.496 263.403C166.325 263.76 174.018 255.024 174.018 255.024C179.678 240.617 185.914 247.092 185.914 247.092C185.914 247.786 185.319 248.083 185.636 249.223C189.998 264.563 216.605 315.013 217.091 315.905L220.372 394.892L223.584 494.9L226.885 603.981Z" fill="white"/>
<path opacity="0.1" d="M215.932 318.137C211.56 316.312 188.403 289.867 188.403 289.867V283.849C187.56 281.866 182.544 283.075 178.489 284.463L180.234 247.905L182.217 249.551C186.549 264.88 215.456 317.254 215.932 318.137Z" fill="black"/>
<path d="M217.031 315.955C212.65 314.121 189.492 287.686 189.492 287.686V281.657C188.65 279.674 183.643 280.884 179.579 282.272L181.294 245.753L183.277 247.389C187.648 262.699 216.546 315.063 217.031 315.955Z" fill="white"/>
<path opacity="0.1" d="M150.107 447.832C150.652 447.832 178.37 444.917 178.37 444.917C178.37 444.917 195.153 477.935 194.053 485.957C192.952 493.979 190.96 501.098 184.209 499.839C177.458 498.579 147.877 500.83 147.877 500.83L150.107 447.832Z" fill="black"/>
<path d="M149.007 445.64C149.562 445.64 177.279 442.725 177.279 442.725C177.279 442.725 194.052 475.793 192.962 483.726C191.871 491.658 189.859 498.867 183.118 497.608C176.377 496.348 146.776 498.599 146.776 498.599L149.007 445.64Z" fill="white"/>
<path d="M169.894 430.182C169.894 430.182 195.332 443.865 195.877 448.03C196.422 452.194 182.93 446.205 180.016 445.471C178.096 445.015 176.144 444.71 174.177 444.559L154.737 445.085L169.894 430.182Z" fill="#FFCEA9"/>
<path opacity="0.1" d="M208.824 319.842C210.302 319.842 211.501 318.643 211.501 317.165C211.501 315.686 210.302 314.488 208.824 314.488C207.346 314.488 206.147 315.686 206.147 317.165C206.147 318.643 207.346 319.842 208.824 319.842Z" fill="black"/>
<path d="M208.824 318.751C210.302 318.751 211.501 317.553 211.501 316.074C211.501 314.595 210.302 313.397 208.824 313.397C207.346 313.397 206.147 314.595 206.147 316.074C206.147 317.553 207.346 318.751 208.824 318.751Z" fill="#3F3D56"/>
<path opacity="0.1" d="M213.751 435.735C215.229 435.735 216.427 434.536 216.427 433.058C216.427 431.579 215.229 430.38 213.751 430.38C212.273 430.38 211.074 431.579 211.074 433.058C211.074 434.536 212.273 435.735 213.751 435.735Z" fill="black"/>
<path d="M213.751 434.634C215.229 434.634 216.427 433.435 216.427 431.957C216.427 430.478 215.229 429.28 213.751 429.28C212.273 429.28 211.074 430.478 211.074 431.957C211.074 433.435 212.273 434.634 213.751 434.634Z" fill="#3F3D56"/>
<path opacity="0.1" d="M211.5 377.788C212.978 377.788 214.176 376.589 214.176 375.111C214.176 373.632 212.978 372.434 211.5 372.434C210.021 372.434 208.823 373.632 208.823 375.111C208.823 376.589 210.021 377.788 211.5 377.788Z" fill="black"/>
<path d="M211.5 376.697C212.978 376.697 214.176 375.499 214.176 374.02C214.176 372.542 212.978 371.343 211.5 371.343C210.021 371.343 208.823 372.542 208.823 374.02C208.823 375.499 210.021 376.697 211.5 376.697Z" fill="#3F3D56"/>
<path d="M273.2 444.004C273.2 444.004 275.024 446.741 273.2 447.97C271.376 449.2 273.379 452.353 273.379 452.353C273.379 452.353 268.828 455.01 270.831 457.42C272.833 459.829 271.564 470.647 271.564 470.647L266.092 479.759C266.092 479.759 266.419 485.6 266.439 493.492C266.439 505.808 265.716 523.12 261.711 531.013L262.246 595.771C262.246 595.771 243.084 602.781 227.044 600.64L224.665 496.725C224.665 496.725 228.134 437.797 229.413 426.493C230.162 420.625 230.466 414.708 230.325 408.794C230.325 408.794 229.78 391.105 227.946 382.905C227.946 382.905 225.963 347.328 225.765 337.482C225.676 332.772 225.924 319.029 226.201 305.96C226.509 291.672 226.855 278.197 226.855 278.197L223.237 249.551C223.237 249.551 226.856 249.194 227.946 250.641C228.434 251.098 228.966 251.506 229.532 251.861C235.787 256.085 257.854 269.074 257.854 269.074C257.854 269.074 270.068 273.933 272.992 280.894C275.916 287.854 277.949 292.792 279.366 294.775C280.784 296.759 281.557 306.079 281.557 306.079C281.557 306.079 285.76 323.233 289.042 326.138C292.323 329.044 294.682 347.486 294.682 347.486L265.686 370.292C265.686 370.292 263.138 408.229 262.593 409.696C262.048 411.164 273.2 444.004 273.2 444.004Z" fill="white"/>
<path d="M274.301 444.004C274.301 444.004 276.115 446.741 274.301 447.97C272.487 449.2 274.469 452.353 274.469 452.353C274.469 452.353 269.919 455.01 271.922 457.42C273.924 459.829 272.655 470.647 272.655 470.647L267.203 479.76C267.203 479.76 267.53 485.6 267.56 493.492C267.56 505.808 266.836 523.12 262.831 531.013L263.376 595.771C263.376 595.771 244.214 602.781 228.174 600.64L225.805 496.725C225.805 496.725 229.265 437.797 230.553 426.493C231.303 420.625 231.604 414.708 231.456 408.794C231.456 408.794 230.91 391.105 229.086 382.905C229.086 382.905 227.104 347.328 226.895 337.482C226.806 332.772 227.054 319.029 227.332 305.96C227.639 291.672 227.986 278.197 227.986 278.197L223.208 249.164C223.208 249.164 227.986 249.164 229.086 250.641C229.57 251.103 230.102 251.512 230.672 251.861V251.861C236.918 256.085 258.985 269.074 258.985 269.074C258.985 269.074 271.168 273.933 274.142 280.894C277.116 287.854 279.099 292.792 280.516 294.775C281.934 296.759 282.707 306.079 282.707 306.079C282.707 306.079 286.91 323.233 290.192 326.138C293.473 329.044 295.842 347.486 295.842 347.486L266.846 370.292C266.846 370.292 264.298 408.229 263.743 409.696C263.188 411.164 274.301 444.004 274.301 444.004Z" fill="white"/>
<path opacity="0.1" d="M239.575 286.615L242.202 294.25L228.412 308.132C228.72 293.843 229.067 280.368 229.067 280.368L224.289 251.345C224.289 251.345 229.067 251.345 230.167 252.823C230.651 253.285 231.183 253.693 231.753 254.042V254.042L243.471 287.845L239.575 286.615Z" fill="black"/>
<path d="M238.454 284.424L241.081 292.049L227.302 305.931C227.599 291.642 227.956 278.167 227.956 278.167L223.168 249.134C223.168 249.134 227.956 249.134 229.046 250.612C229.533 251.071 230.064 251.479 230.632 251.831V251.831L242.419 285.663L238.454 284.424Z" fill="white"/>
<path opacity="0.1" d="M238.455 208.877C238.459 212.45 237.897 216.001 236.79 219.398C236.603 219.429 236.412 219.422 236.228 219.378C236.044 219.334 235.871 219.253 235.719 219.14C235.451 210.216 231.07 201.828 225.667 194.698C224.147 192.548 222.309 190.642 220.214 189.046C218.095 187.455 215.459 186.709 212.819 186.954C209.845 187.361 207.218 189.384 204.214 189.641C200.249 189.969 196.7 187.222 192.765 187.093C191.164 187.106 189.585 187.462 188.134 188.136C186.682 188.809 185.391 189.786 184.348 191C182.279 193.441 180.742 196.288 179.838 199.359C178.279 204.017 177.43 208.884 177.32 213.796C177.27 216.572 177.002 220.052 174.425 221.064C174.62 219.023 174.388 216.965 173.745 215.019C173.102 213.073 172.06 211.282 170.688 209.76L170.628 209.691C170.628 209.413 170.628 209.155 170.628 208.877C170.628 199.878 174.202 191.248 180.564 184.885C186.926 178.521 195.554 174.947 204.551 174.947C213.549 174.947 222.177 178.521 228.539 184.885C234.901 191.248 238.475 199.878 238.475 208.877H238.455Z" fill="black"/>
<path d="M218.628 155.006C213.476 152.582 207.617 152.124 202.152 153.717C199.406 154.53 196.819 155.849 194.033 156.513C188.085 157.951 181.146 156.394 176.04 159.875C173.205 161.858 171.5 164.991 169.914 168.045L165.949 175.591C163.788 179.726 161.607 183.93 160.704 188.481C159.802 193.032 160.348 198.129 163.232 201.798C165.324 204.455 168.437 206.131 170.717 208.639C172.087 210.169 173.125 211.965 173.767 213.916C174.408 215.866 174.639 217.929 174.444 219.973C177.022 218.981 177.279 215.481 177.339 212.705C177.45 207.793 178.299 202.927 179.857 198.268C180.762 195.197 182.298 192.35 184.367 189.909C185.41 188.694 186.701 187.716 188.152 187.04C189.604 186.365 191.183 186.007 192.784 185.992C196.749 186.131 200.308 188.878 204.234 188.54C207.208 188.293 209.845 186.27 212.838 185.863C215.478 185.613 218.116 186.36 220.234 187.955C222.33 189.546 224.166 191.453 225.676 193.607C231.089 200.746 235.48 209.095 235.738 218.049C236.858 218.862 238.474 217.791 239.029 216.522C239.584 215.253 239.604 213.766 240.308 212.556C241.121 211.158 242.677 210.404 243.897 209.353C246.99 206.686 247.763 202.194 247.644 198.119C247.525 194.044 246.732 189.909 247.505 185.903C247.971 183.454 249.022 181.143 249.597 178.714C250.172 176.285 250.241 173.558 248.883 171.466C246.9 168.402 242.727 167.787 239.089 167.5C234.955 167.143 231.257 167.599 228.62 164.119C227.379 162.305 225.987 160.6 224.457 159.022C223.912 158.496 218.628 155.224 218.628 155.006Z" fill="#512E4E"/>
<path opacity="0.1" d="M110.851 364.105L100.501 344.958L97.2198 374.506C97.2198 374.506 99.0439 387.634 98.6771 389.647C98.3103 391.66 106.152 409.706 106.152 409.706C106.152 409.706 132.055 455.863 142.633 458.233L178.32 432.691L168.843 420.653C168.843 420.653 165.562 419.374 164.739 420.653C164.739 420.653 147.133 390.371 145.319 388.19C143.505 386.008 143.852 381.616 143.852 381.616C143.852 381.616 141.116 378.701 142.028 375.964C142.94 373.227 136.794 363.748 136.794 363.748L142.444 358.463L110.851 364.105Z" fill="black"/>
<path d="M101.046 342.767L98.3102 344.958L95.0289 374.506C95.0289 374.506 96.8529 387.634 96.4862 389.647C96.1194 391.66 103.971 409.706 103.971 409.706C103.971 409.706 129.864 455.863 140.442 458.233L176.189 432.691L166.702 420.653C166.702 420.653 163.421 419.374 162.598 420.653C162.598 420.653 145.002 390.371 143.178 388.19C141.354 386.008 141.72 381.616 141.72 381.616C141.72 381.616 138.984 378.701 139.896 375.964C140.808 373.227 134.603 363.748 134.603 363.748L140.253 358.463L101.046 342.767Z" fill="white"/>
<path opacity="0.1" d="M270.831 458.56C272.814 460.97 271.565 471.797 271.565 471.797L266.093 480.85C266.093 480.85 266.42 486.7 266.44 494.593L257.24 497.469C256.407 497.728 255.525 497.785 254.665 497.634C253.806 497.483 252.996 497.129 252.301 496.601C251.607 496.074 251.048 495.387 250.673 494.6C250.297 493.813 250.115 492.947 250.142 492.075L251.738 440.91L273.2 449.111C271.376 450.38 273.379 453.493 273.379 453.493C273.379 453.493 268.829 456.151 270.831 458.56Z" fill="black"/>
<path d="M271.921 457.469C273.904 459.869 272.655 470.696 272.655 470.696L267.203 479.759C267.203 479.759 267.53 485.6 267.559 493.492L258.191 496.417C257.378 496.673 256.515 496.729 255.675 496.583C254.836 496.436 254.043 496.091 253.364 495.576C252.684 495.06 252.138 494.39 251.771 493.62C251.404 492.851 251.226 492.005 251.252 491.152L252.848 439.81L274.3 448.03C272.467 449.299 274.469 452.412 274.469 452.412C274.469 452.412 269.919 455.06 271.921 457.469Z" fill="white"/>
<path d="M279.039 433.058C279.039 433.058 277.582 442.368 273.934 442.914C270.286 443.459 268.65 457.975 265.012 457.47C261.374 456.964 263.783 443.965 263.912 441.446C264.041 438.928 259.946 428.496 263 426.127C266.053 423.757 275.768 426.127 275.768 426.127L279.039 433.058Z" fill="#FFCEA9"/>
<path opacity="0.1" d="M286.752 361.368L293.622 347.487C293.622 347.487 296.367 358.067 296.367 363.718C296.367 369.37 300.194 369.925 300.194 369.925C300.194 369.925 304.387 374.883 302.177 378.502C299.966 382.122 299.084 391.085 299.084 391.085C299.084 391.085 299.807 408.229 296.526 410.599C293.245 412.969 292.511 418.631 292.511 418.631C292.511 418.631 286.494 429.389 286.682 431.947C286.871 434.505 278.296 451.828 278.296 451.828C278.296 451.828 282.489 430.301 258.053 421C258.053 421 257.864 413.703 259.688 411.7C261.512 409.697 264.357 408.725 262.573 398.651C260.789 388.577 262.058 376.43 262.058 374.001C262.058 371.571 267.53 356.43 267.53 356.43L286.752 361.368Z" fill="black"/>
<path d="M289.805 345.503L295.813 347.486C295.813 347.486 298.559 358.066 298.559 363.718C298.559 369.37 302.385 369.925 302.385 369.925C302.385 369.925 306.578 374.883 304.368 378.502C302.157 382.121 301.265 391.085 301.265 391.085C301.265 391.085 301.998 408.229 298.717 410.599C295.436 412.969 294.752 418.63 294.752 418.63C294.752 418.63 288.735 429.389 288.923 431.947C289.111 434.505 280.526 451.828 280.526 451.828C280.526 451.828 284.72 430.301 260.283 421C260.283 421 260.105 413.702 261.929 411.699C263.753 409.697 266.598 408.725 264.814 398.651C263.029 388.576 264.298 376.43 264.298 374.001C264.298 371.571 269.77 356.43 269.77 356.43L289.805 345.503Z" fill="white"/>
<path opacity="0.1" d="M157.086 705.308C157.086 705.308 166.662 699.289 172.947 703.662C179.233 708.035 157.086 705.308 157.086 705.308Z" fill="black"/>
<path opacity="0.1" d="M231.515 686.697C231.515 686.697 239.991 685.606 247.109 693.271C254.227 700.935 231.515 686.697 231.515 686.697Z" fill="black"/>
<defs>
<linearGradient id="paint0_linear" x1="187974" y1="536684" x2="187974" y2="161261" gradientUnits="userSpaceOnUse">
<stop stop-color="#808080" stop-opacity="0.25"/>
<stop offset="0.54" stop-color="#808080" stop-opacity="0.12"/>
<stop offset="1" stop-color="#808080" stop-opacity="0.1"/>
</linearGradient>
</defs>
</svg>
