<svg width="904" height="904" viewBox="0 0 904 904" fill="none" xmlns="http://www.w3.org/2000/svg">
<path d="M903.294 243.475H0.150146V822.279H903.294V243.475Z" fill="#E6E6E6"/>
<path d="M818.67 307.571H84.7729V758.183H818.67V307.571Z" fill="white"/>
<path d="M818.67 394.109H84.7729V421.777H818.67V394.109Z" fill="#E6E6E6"/>
<path d="M818.67 529.372H84.7729V557.04H818.67V529.372Z" fill="#E6E6E6"/>
<path d="M497.211 455.592H186.934V483.26H497.211V455.592Z" fill="#E6E6E6"/>
<path d="M818.67 672.321H84.7729V699.989H818.67V672.321Z" fill="#E6E6E6"/>
<path d="M200.758 307.571H173.11V689.229H200.758V307.571Z" fill="#E6E6E6"/>
<path d="M716.862 307.571H689.214V544.743H716.862V307.571Z" fill="#E6E6E6"/>
<path d="M507.963 307.571H480.314V758.183H507.963V307.571Z" fill="#E6E6E6"/>
<path d="M480.25 307.925H84.75V774.05H480.25V307.925Z" fill="#E6E6E6"/>
<path d="M702.013 364.425C713.714 364.425 723.2 355.571 723.2 344.65C723.2 333.729 713.714 324.875 702.013 324.875C690.311 324.875 680.825 333.729 680.825 344.65C680.825 355.571 690.311 364.425 702.013 364.425Z" fill="#3943B7"/>
<path d="M703.425 48.025C685.443 48.025 668.198 55.1332 655.483 67.7858C642.768 80.4385 635.625 97.5991 635.625 115.493C635.625 152.754 703.425 293.8 703.425 293.8C703.425 293.8 771.225 152.754 771.225 115.493C771.225 97.5991 764.082 80.4385 751.367 67.7858C738.652 55.1332 721.407 48.025 703.425 48.025V48.025ZM703.425 147.62C697.039 147.62 690.797 145.736 685.488 142.206C680.179 138.675 676.04 133.658 673.597 127.787C671.153 121.917 670.514 115.457 671.76 109.225C673.005 102.993 676.08 97.2682 680.596 92.7751C685.111 88.282 690.864 85.2221 697.126 83.9825C703.389 82.7429 709.881 83.3791 715.78 85.8107C721.68 88.2424 726.722 92.3603 730.27 97.6436C733.817 102.927 735.711 109.138 735.711 115.493C735.711 124.013 732.309 132.185 726.254 138.21C720.2 144.235 711.988 147.62 703.425 147.62V147.62Z" fill="#3943B7"/>
</svg>
